# xmcd
#
# Track frame offsets: 
#        150
#        11245
#        24187
#        36477
#        48132
#        61345
#        70385
#        85590
#        97145
#        107957
#        118517
#        129535
#
# Disc length: 1953 seconds
#
# Revision: 2
# Processed by: cddbd v1.5.2PL0 Copyright (c) Steve Scherf et al.
# Submitted via: ExactAudioCopy v0.95b4
#
DISCID=a0079f0c
DTITLE=TONICO and TINOCO - Lá No Meu Sertão
DYEAR=1963
DGENRE=Country
TTITLE0=Pot-Pourri - Meu Sertão and Moreninha Linda
TTITLE1=Cabocla
TTITLE2=Pé De Ipê
TTITLE3=Desafio
TTITLE4=Meu Sertão
TTITLE5=Rancheira Junina
TTITLE6=Ferreirinha
TTITLE7=Saudade
TTITLE8=Velho Carreiro
TTITLE9=Paranaense
TTITLE10=Padecimento
TTITLE11=Pot-Pourri - Meu Sertão and Moreninha Linda
EXTD=
EXTT0=
EXTT1=
EXTT2=
EXTT3=
EXTT4=
EXTT5=
EXTT6=
EXTT7=
EXTT8=
EXTT9=
EXTT10=
EXTT11=
PLAYORDER=
